<?xml version="1.0" encoding="utf-8"?>
<!-- Generator: Adobe Illustrator 16.0.0, SVG Export Plug-In . SVG Version: 6.00 Build 0)  -->
<!DOCTYPE svg PUBLIC "-//W3C//DTD SVG 1.1//EN" "http://www.w3.org/Graphics/SVG/1.1/DTD/svg11.dtd">
<svg version="1.1" id="Layer_1" xmlns="http://www.w3.org/2000/svg" xmlns:xlink="http://www.w3.org/1999/xlink" x="0px" y="0px"
	 width="128px" height="128px" viewBox="0 0 128 128" enable-background="new 0 0 128 128" xml:space="preserve">
<g>
	<g>
		<path fill="#282D33" d="M29.854,61.262h-3.989V38.316C25.864,17.188,43.253,0,64.626,0c21.375,0,38.765,17.188,38.765,38.316
			v2.903H99.4v-2.903c0-18.928-15.6-34.327-34.774-34.327c-19.174,0-34.772,15.399-34.772,34.327V61.262z"/>
	</g>
	<g>
		<path fill="#282D33" d="M108.134,127.663h-3.99v-19.824c0-5.166-4.934-9.368-11-9.368H36.111c-6.066,0-11.003,4.202-11.003,9.368
			v19.824h-3.989v-19.824c0-7.366,6.726-13.357,14.992-13.357h57.032c8.266,0,14.99,5.991,14.99,13.357V127.663z"/>
	</g>
	<g>
		<path fill="#282D33" d="M65.378,91.94c-14.555,0-27.228-9.724-30.819-23.648l3.862-0.997
			c3.138,12.162,14.223,20.656,26.957,20.656c15.338,0,27.816-12.316,27.816-27.456V38.183h3.989v22.313
			C97.184,77.835,82.916,91.94,65.378,91.94z"/>
	</g>
	<g>
		<path fill="#282D33" d="M37.33,41.843h-3.989v-2.405c0-5.091,4.181-9.232,9.318-9.232h50.874c6.307,0,11.437-5.058,11.437-11.273
			v-8.86H84.966v-3.99h23.993v12.85c0,8.416-6.92,15.263-15.426,15.263H42.659c-2.938,0-5.329,2.352-5.329,5.243V41.843z"/>
	</g>
	<g>
		<path fill="none" stroke="#282D33" stroke-width="4" d="M35.336,61.753"/>
	</g>
	<g>
		<path fill="#282D33" d="M29.675,72.901h-0.663c-5.498,0-9.971-4.428-9.971-9.871V48.588c0-5.443,4.473-9.872,9.971-9.872h0.663
			c5.497,0,9.97,4.429,9.97,9.872V63.03C39.645,68.474,35.172,72.901,29.675,72.901z M29.012,42.706
			c-3.298,0-5.981,2.639-5.981,5.882V63.03c0,3.243,2.684,5.882,5.981,5.882h0.663c3.298,0,5.98-2.639,5.98-5.882V48.588
			c0-3.243-2.683-5.882-5.98-5.882H29.012z"/>
	</g>
	<g>
		<path fill="#282D33" d="M98.966,72.901h-0.66c-2.173,0-4.234-0.678-5.962-1.96l2.379-3.202c1.033,0.768,2.272,1.173,3.583,1.173
			h0.66c3.3,0,5.982-2.639,5.982-5.882V48.588c0-3.243-2.683-5.882-5.982-5.882h-0.66c-0.896,0-1.754,0.188-2.549,0.557
			l-1.681-3.618c1.325-0.616,2.748-0.928,4.229-0.928h0.66c5.499,0,9.973,4.429,9.973,9.872V63.03
			C108.938,68.474,104.465,72.901,98.966,72.901z"/>
	</g>
	<g>
		<path fill="#282D33" d="M29.854,61.262h-3.989V38.316C25.864,17.188,43.253,0,64.626,0v3.989
			c-19.174,0-34.772,15.399-34.772,34.327V61.262z"/>
	</g>
	<g>
		<polygon fill="#282D33" points="69.693,107.287 58.419,107.287 53.351,98.614 56.795,96.603 60.708,103.298 67.404,103.298 
			71.318,96.602 74.763,98.615 		"/>
	</g>
	<g>
		
			<rect x="58.449" y="114.455" transform="matrix(0.1691 0.9856 -0.9856 0.1691 172.7939 27.9422)" fill="#282D33" width="22.752" height="3.99"/>
	</g>
	<g>
		
			<rect x="56.287" y="105.073" transform="matrix(0.9856 0.1689 -0.1689 0.9856 20.5087 -8.1717)" fill="#282D33" width="3.989" height="22.754"/>
	</g>
	<g>
		<path fill="#282D33" d="M93.664,80.931H70.897v-3.989h22.767c3.163,0,5.736-2.53,5.736-5.642h3.99
			C103.391,76.61,99.026,80.931,93.664,80.931z"/>
	</g>
	<g>
		<rect x="64.425" y="50.052" fill="#282D33" width="3.989" height="15.702"/>
	</g>
</g>
</svg>
